<mxfile host="app.diagrams.net" modified="2021-04-10T11:21:25.720Z" agent="5.0 (Windows NT 6.3; Win64; x64) AppleWebKit/537.36 (KHTML, like Gecko) Chrome/89.0.4389.114 Safari/537.36" etag="sfSVIciKRnW0z4or37pb" version="14.5.10" type="github">
  <diagram id="yFWkw1LN1g4Q2YWs3e7p" name="Page-1">
    <mxGraphModel dx="1021" dy="529" grid="1" gridSize="10" guides="1" tooltips="1" connect="1" arrows="1" fold="1" page="1" pageScale="1" pageWidth="827" pageHeight="1169" math="0" shadow="0">
      <root>
        <mxCell id="0" />
        <mxCell id="1" parent="0" />
        <mxCell id="fwSFxsO6UGKjWi7Awonu-16" value="" style="edgeStyle=orthogonalEdgeStyle;rounded=0;orthogonalLoop=1;jettySize=auto;html=1;" edge="1" parent="1" source="fwSFxsO6UGKjWi7Awonu-1" target="fwSFxsO6UGKjWi7Awonu-15">
          <mxGeometry relative="1" as="geometry">
            <Array as="points">
              <mxPoint x="570" y="470" />
            </Array>
          </mxGeometry>
        </mxCell>
        <mxCell id="fwSFxsO6UGKjWi7Awonu-1" value="Speedo fit" style="rounded=0;whiteSpace=wrap;html=1;fillColor=#e1d5e7;strokeColor=#9673a6;" vertex="1" parent="1">
          <mxGeometry x="380" y="440" width="114" height="60" as="geometry" />
        </mxCell>
        <mxCell id="fwSFxsO6UGKjWi7Awonu-96" value="" style="edgeStyle=orthogonalEdgeStyle;rounded=0;orthogonalLoop=1;jettySize=auto;html=1;fillColor=#a20025;strokeColor=#6F0000;strokeWidth=5;" edge="1" parent="1" target="fwSFxsO6UGKjWi7Awonu-7">
          <mxGeometry relative="1" as="geometry">
            <mxPoint x="120.05882352941171" y="280" as="sourcePoint" />
            <Array as="points">
              <mxPoint x="120" y="320" />
              <mxPoint x="60" y="320" />
            </Array>
          </mxGeometry>
        </mxCell>
        <mxCell id="fwSFxsO6UGKjWi7Awonu-4" value="stream" style="shape=flexArrow;endArrow=classic;html=1;endWidth=26;endSize=9.33;width=30;fillColor=#e3c800;strokeColor=#B09500;" edge="1" parent="1">
          <mxGeometry width="50" height="50" relative="1" as="geometry">
            <mxPoint x="170" y="234.41" as="sourcePoint" />
            <mxPoint x="530" y="234.41" as="targetPoint" />
          </mxGeometry>
        </mxCell>
        <mxCell id="fwSFxsO6UGKjWi7Awonu-114" style="edgeStyle=orthogonalEdgeStyle;rounded=0;orthogonalLoop=1;jettySize=auto;html=1;entryX=0;entryY=0.75;entryDx=0;entryDy=0;strokeWidth=1;" edge="1" parent="1" source="fwSFxsO6UGKjWi7Awonu-5" target="fwSFxsO6UGKjWi7Awonu-15">
          <mxGeometry relative="1" as="geometry">
            <Array as="points">
              <mxPoint x="340" y="400" />
              <mxPoint x="340" y="295" />
            </Array>
          </mxGeometry>
        </mxCell>
        <mxCell id="fwSFxsO6UGKjWi7Awonu-5" value="web game &lt;br&gt;(use for collect data)" style="rounded=0;whiteSpace=wrap;html=1;fillColor=#f8cecc;strokeColor=#b85450;" vertex="1" parent="1">
          <mxGeometry x="200" y="370" width="120" height="60" as="geometry" />
        </mxCell>
        <mxCell id="fwSFxsO6UGKjWi7Awonu-6" value="records &lt;br&gt;or stream&lt;br&gt;by pairs" style="shape=flexArrow;endArrow=classic;html=1;endWidth=28;endSize=7.39;width=31;fillColor=#a20025;strokeColor=#6F0000;" edge="1" parent="1" source="fwSFxsO6UGKjWi7Awonu-5" target="fwSFxsO6UGKjWi7Awonu-7">
          <mxGeometry x="-0.2727" width="50" height="50" relative="1" as="geometry">
            <mxPoint x="220" y="440" as="sourcePoint" />
            <mxPoint x="120" y="400" as="targetPoint" />
            <mxPoint as="offset" />
          </mxGeometry>
        </mxCell>
        <mxCell id="fwSFxsO6UGKjWi7Awonu-10" style="edgeStyle=orthogonalEdgeStyle;rounded=0;orthogonalLoop=1;jettySize=auto;html=1;entryX=0;entryY=0.25;entryDx=0;entryDy=0;" edge="1" parent="1" source="fwSFxsO6UGKjWi7Awonu-7" target="fwSFxsO6UGKjWi7Awonu-9">
          <mxGeometry relative="1" as="geometry" />
        </mxCell>
        <mxCell id="fwSFxsO6UGKjWi7Awonu-105" style="edgeStyle=orthogonalEdgeStyle;rounded=0;orthogonalLoop=1;jettySize=auto;html=1;entryX=0;entryY=0.75;entryDx=0;entryDy=0;" edge="1" parent="1" source="fwSFxsO6UGKjWi7Awonu-7" target="fwSFxsO6UGKjWi7Awonu-104">
          <mxGeometry relative="1" as="geometry">
            <Array as="points">
              <mxPoint x="60" y="815" />
            </Array>
          </mxGeometry>
        </mxCell>
        <mxCell id="fwSFxsO6UGKjWi7Awonu-7" value="storage&lt;br&gt;clusters" style="shape=cylinder3;whiteSpace=wrap;html=1;boundedLbl=1;backgroundOutline=1;size=15;fillColor=#a20025;strokeColor=#6F0000;fontColor=#ffffff;" vertex="1" parent="1">
          <mxGeometry x="20" y="670" width="127.5" height="170" as="geometry" />
        </mxCell>
        <mxCell id="fwSFxsO6UGKjWi7Awonu-11" style="edgeStyle=orthogonalEdgeStyle;rounded=0;orthogonalLoop=1;jettySize=auto;html=1;entryX=0.5;entryY=1;entryDx=0;entryDy=0;" edge="1" parent="1" source="fwSFxsO6UGKjWi7Awonu-9" target="fwSFxsO6UGKjWi7Awonu-1">
          <mxGeometry relative="1" as="geometry" />
        </mxCell>
        <mxCell id="fwSFxsO6UGKjWi7Awonu-9" value="pre-preparation&lt;br&gt;&amp;nbsp;of data for training" style="shape=parallelogram;perimeter=parallelogramPerimeter;whiteSpace=wrap;html=1;fixedSize=1;fillColor=#e1d5e7;strokeColor=#9673a6;" vertex="1" parent="1">
          <mxGeometry x="340" y="550" width="147" height="60" as="geometry" />
        </mxCell>
        <mxCell id="fwSFxsO6UGKjWi7Awonu-20" value="" style="edgeStyle=orthogonalEdgeStyle;rounded=0;orthogonalLoop=1;jettySize=auto;html=1;" edge="1" parent="1" source="fwSFxsO6UGKjWi7Awonu-15" target="fwSFxsO6UGKjWi7Awonu-19">
          <mxGeometry relative="1" as="geometry">
            <Array as="points">
              <mxPoint x="630" y="440" />
              <mxPoint x="630" y="440" />
            </Array>
          </mxGeometry>
        </mxCell>
        <mxCell id="fwSFxsO6UGKjWi7Awonu-15" value="saved Speedo model" style="rounded=1;whiteSpace=wrap;html=1;fillColor=#e3c800;strokeColor=#B09500;fontColor=#ffffff;" vertex="1" parent="1">
          <mxGeometry x="530" y="170" width="130" height="160" as="geometry" />
        </mxCell>
        <mxCell id="fwSFxsO6UGKjWi7Awonu-102" value="" style="edgeStyle=orthogonalEdgeStyle;rounded=0;orthogonalLoop=1;jettySize=auto;html=1;" edge="1" parent="1" source="fwSFxsO6UGKjWi7Awonu-19" target="fwSFxsO6UGKjWi7Awonu-101">
          <mxGeometry relative="1" as="geometry" />
        </mxCell>
        <mxCell id="fwSFxsO6UGKjWi7Awonu-19" value="results of game" style="triangle;whiteSpace=wrap;html=1;rounded=1;fillColor=#e1d5e7;strokeColor=#9673a6;" vertex="1" parent="1">
          <mxGeometry x="570" y="540" width="120" height="110" as="geometry" />
        </mxCell>
        <mxCell id="fwSFxsO6UGKjWi7Awonu-21" value="stream" style="shape=flexArrow;endArrow=classic;html=1;exitX=0.5;exitY=0;exitDx=0;exitDy=0;endWidth=26;endSize=9.33;width=30;fillColor=#e3c800;strokeColor=#B09500;" edge="1" parent="1" source="fwSFxsO6UGKjWi7Awonu-15">
          <mxGeometry width="50" height="50" relative="1" as="geometry">
            <mxPoint x="680" y="120" as="sourcePoint" />
            <mxPoint x="595" y="80" as="targetPoint" />
          </mxGeometry>
        </mxCell>
        <mxCell id="fwSFxsO6UGKjWi7Awonu-111" style="edgeStyle=orthogonalEdgeStyle;rounded=0;orthogonalLoop=1;jettySize=auto;html=1;entryX=0.855;entryY=0.035;entryDx=0;entryDy=0;entryPerimeter=0;fillColor=#0050ef;strokeColor=#001DBC;strokeWidth=5;" edge="1" parent="1" source="fwSFxsO6UGKjWi7Awonu-22" target="fwSFxsO6UGKjWi7Awonu-101">
          <mxGeometry relative="1" as="geometry" />
        </mxCell>
        <mxCell id="fwSFxsO6UGKjWi7Awonu-112" style="edgeStyle=orthogonalEdgeStyle;rounded=0;orthogonalLoop=1;jettySize=auto;html=1;fillColor=#e3c800;strokeColor=#B09500;strokeWidth=5;" edge="1" parent="1" source="fwSFxsO6UGKjWi7Awonu-22">
          <mxGeometry relative="1" as="geometry">
            <mxPoint x="260" y="370" as="targetPoint" />
            <Array as="points">
              <mxPoint x="260" y="40" />
              <mxPoint x="260" y="371" />
            </Array>
          </mxGeometry>
        </mxCell>
        <mxCell id="fwSFxsO6UGKjWi7Awonu-22" value="Output &lt;br&gt;translated speech" style="rounded=0;whiteSpace=wrap;html=1;fillColor=#e3c800;strokeColor=#B09500;fontColor=#ffffff;" vertex="1" parent="1">
          <mxGeometry x="520" y="10" width="140" height="60" as="geometry" />
        </mxCell>
        <mxCell id="fwSFxsO6UGKjWi7Awonu-26" value="" style="edgeStyle=orthogonalEdgeStyle;rounded=0;orthogonalLoop=1;jettySize=auto;html=1;" edge="1" parent="1" source="fwSFxsO6UGKjWi7Awonu-25" target="fwSFxsO6UGKjWi7Awonu-5">
          <mxGeometry relative="1" as="geometry">
            <Array as="points">
              <mxPoint x="170" y="400" />
              <mxPoint x="170" y="400" />
            </Array>
          </mxGeometry>
        </mxCell>
        <mxCell id="fwSFxsO6UGKjWi7Awonu-25" value="Client" style="shape=umlActor;verticalLabelPosition=bottom;verticalAlign=top;html=1;outlineConnect=0;" vertex="1" parent="1">
          <mxGeometry x="105" y="360" width="30" height="60" as="geometry" />
        </mxCell>
        <mxCell id="fwSFxsO6UGKjWi7Awonu-28" value="" style="edgeStyle=orthogonalEdgeStyle;rounded=0;orthogonalLoop=1;jettySize=auto;html=1;strokeWidth=5;fillColor=#f0a30a;strokeColor=#BD7000;" edge="1" parent="1" source="fwSFxsO6UGKjWi7Awonu-27">
          <mxGeometry relative="1" as="geometry">
            <mxPoint x="130" y="180" as="targetPoint" />
          </mxGeometry>
        </mxCell>
        <mxCell id="fwSFxsO6UGKjWi7Awonu-27" value="Client" style="shape=umlActor;verticalLabelPosition=bottom;verticalAlign=top;html=1;outlineConnect=0;" vertex="1" parent="1">
          <mxGeometry y="100" width="30" height="60" as="geometry" />
        </mxCell>
        <mxCell id="fwSFxsO6UGKjWi7Awonu-103" style="edgeStyle=orthogonalEdgeStyle;rounded=0;orthogonalLoop=1;jettySize=auto;html=1;" edge="1" parent="1" source="fwSFxsO6UGKjWi7Awonu-101" target="fwSFxsO6UGKjWi7Awonu-104">
          <mxGeometry relative="1" as="geometry">
            <mxPoint x="420" y="590" as="targetPoint" />
          </mxGeometry>
        </mxCell>
        <mxCell id="fwSFxsO6UGKjWi7Awonu-107" style="edgeStyle=orthogonalEdgeStyle;rounded=0;orthogonalLoop=1;jettySize=auto;html=1;entryX=0.75;entryY=1;entryDx=0;entryDy=0;" edge="1" parent="1" source="fwSFxsO6UGKjWi7Awonu-101" target="fwSFxsO6UGKjWi7Awonu-1">
          <mxGeometry relative="1" as="geometry">
            <Array as="points">
              <mxPoint x="740" y="670" />
              <mxPoint x="520" y="670" />
              <mxPoint x="520" y="530" />
              <mxPoint x="465" y="530" />
            </Array>
          </mxGeometry>
        </mxCell>
        <mxCell id="fwSFxsO6UGKjWi7Awonu-101" value="evaluation of the results of the game" style="whiteSpace=wrap;html=1;aspect=fixed;fillColor=#e1d5e7;strokeColor=#9673a6;" vertex="1" parent="1">
          <mxGeometry x="720" y="760" width="80" height="80" as="geometry" />
        </mxCell>
        <mxCell id="fwSFxsO6UGKjWi7Awonu-106" style="edgeStyle=orthogonalEdgeStyle;rounded=0;orthogonalLoop=1;jettySize=auto;html=1;entryX=0.5;entryY=1;entryDx=0;entryDy=0;" edge="1" parent="1" source="fwSFxsO6UGKjWi7Awonu-104" target="fwSFxsO6UGKjWi7Awonu-9">
          <mxGeometry relative="1" as="geometry" />
        </mxCell>
        <mxCell id="fwSFxsO6UGKjWi7Awonu-104" value="evaluation of the data" style="shape=process;whiteSpace=wrap;html=1;backgroundOutline=1;fillColor=#e1d5e7;strokeColor=#9673a6;" vertex="1" parent="1">
          <mxGeometry x="330" y="770" width="120" height="60" as="geometry" />
        </mxCell>
        <mxCell id="fwSFxsO6UGKjWi7Awonu-18" value="&lt;font style=&quot;font-size: 15px&quot;&gt;records or stream&lt;/font&gt;" style="text;html=1;strokeColor=none;fillColor=none;align=center;verticalAlign=middle;whiteSpace=wrap;rounded=0;" vertex="1" parent="1">
          <mxGeometry x="358.62" y="300" width="156.75" height="20" as="geometry" />
        </mxCell>
        <mxCell id="fwSFxsO6UGKjWi7Awonu-116" value="button activation&lt;br&gt;to start record stream" style="ellipse;whiteSpace=wrap;html=1;aspect=fixed;fillColor=#e3c800;strokeColor=#B09500;fontColor=#ffffff;" vertex="1" parent="1">
          <mxGeometry x="70" y="180" width="110" height="110" as="geometry" />
        </mxCell>
      </root>
    </mxGraphModel>
  </diagram>
</mxfile>
